<svg width="800" height="800" viewBox="0 0 800 800" fill="none" xmlns="http://www.w3.org/2000/svg">
<path d="M24.0966 466.422H138.391C143.181 466.422 147.774 468.33 151.161 471.726L289.486 610.418C296.538 617.489 307.974 617.489 315.027 610.418L621.206 303.426C624.592 300.03 629.186 298.123 633.976 298.123H775.904C791.993 298.123 800.052 317.628 788.674 329.035L324.431 794.51C317.302 801.657 305.719 801.57 298.698 794.315L11.1342 497.14C0.0217228 485.656 8.13727 466.422 24.0966 466.422Z" fill="#ECB652"/>
<path d="M171.42 142.761L310.292 3.52036C312.541 1.26579 315.589 0 318.769 0H438.661C445.282 0 450.649 5.3814 450.649 12.0196V377.166C450.649 380.353 449.386 383.411 447.138 385.665L322.958 510.174C315.406 517.746 302.494 512.383 302.494 501.675V176.078C302.494 172.189 297.808 170.239 295.061 172.983L188.359 279.574C180.8 287.125 167.909 281.757 167.909 271.059V151.258C167.909 148.07 169.173 145.014 171.42 142.761Z" fill="#ECB652"/>
</svg>
