<svg width="800" height="706" viewBox="0 0 800 706" fill="none" xmlns="http://www.w3.org/2000/svg">
<path d="M712.803 357.413C712.803 549.932 553.236 706 356.401 706C159.566 706 0 549.932 0 357.413C0 164.894 159.566 8.82606 356.401 8.82606C553.236 8.82606 712.803 164.894 712.803 357.413Z" fill="#EEA93F"/>
<path d="M143.369 415.102C93.0018 364.913 93.0018 283.541 143.369 233.352C193.736 183.164 275.398 183.164 325.765 233.352L447.091 354.248C497.458 404.437 497.458 485.809 447.091 535.998C396.724 586.187 315.062 586.186 264.695 535.998L143.369 415.102Z" fill="white"/>
<path d="M580.632 37.7542C630.816 -12.5848 712.179 -12.5847 762.362 37.7543C812.546 88.0933 812.546 169.709 762.362 220.048L446.979 536.408C396.796 586.747 315.433 586.747 265.249 536.408C215.066 486.069 215.066 404.454 265.249 354.115L580.632 37.7542Z" fill="white"/>
<path d="M160.447 398.32C119.385 357.404 119.385 291.066 160.447 250.149C201.509 209.233 268.083 209.233 309.144 250.149L430.532 371.107C471.594 412.023 471.594 478.361 430.532 519.277C389.47 560.193 322.896 560.193 281.835 519.277L160.447 398.32Z" fill="#53BE96"/>
<path d="M601.017 51.0354C641.942 9.98312 708.295 9.98315 749.221 51.0354C790.146 92.0876 790.146 158.646 749.221 199.699L430.29 519.618C389.365 560.67 323.011 560.67 282.086 519.618C241.161 478.566 241.161 412.007 282.086 370.955L601.017 51.0354Z" fill="#53BE96"/>
</svg>
